<svg width="512" height="512" xmlns="http://www.w3.org/2000/svg">
  <!-- Warm cream background -->
  <rect width="512" height="512" fill="#fff3ea"/>
  
  <!-- Context sunburst logo centered -->
  <g transform="translate(256,256)">
    <!-- Main circle -->
    <circle cx="0" cy="0" r="120" fill="#ed2024"/>
    
    <!-- Sunburst rays -->
    <g stroke="#ed2024" stroke-width="8" stroke-linecap="round">
      <!-- Top rays -->
      <line x1="0" y1="-140" x2="0" y2="-180" />
      <line x1="20" y1="-138" x2="28" y2="-177" />
      <line x1="39" y1="-132" x2="54" y2="-169" />
      <line x1="56" y1="-122" x2="78" y2="-157" />
      <line x1="71" y1="-109" x2="99" y2="-140" />
      <line x1="83" y1="-93" x2="116" y2="-118" />
      <line x1="93" y1="-75" x2="130" y2="-94" />
      <line x1="99" y1="-56" x2="139" y2="-67" />
      
      <!-- Right rays -->
      <line x1="103" y1="-35" x2="145" y2="-37" />
      <line x1="105" y1="-14" x2="148" y2="-5" />
      <line x1="105" y1="8" x2="148" y2="28" />
      <line x1="103" y1="29" x2="145" y2="58" />
      <line x1="99" y1="50" x2="139" y2="86" />
      <line x1="93" y1="69" x2="130" y2="112" />
      <line x1="83" y1="87" x2="116" y2="135" />
      <line x1="71" y1="103" x2="99" y2="155" />
      
      <!-- Bottom rays -->
      <line x1="56" y1="116" x2="78" y2="172" />
      <line x1="39" y1="126" x2="54" y2="184" />
      <line x1="20" y1="132" x2="28" y2="192" />
      <line x1="0" y1="134" x2="0" y2="195" />
      <line x1="-20" y1="132" x2="-28" y2="192" />
      <line x1="-39" y1="126" x2="-54" y2="184" />
      <line x1="-56" y1="116" x2="-78" y2="172" />
      <line x1="-71" y1="103" x2="-99" y2="155" />
      
      <!-- Left rays -->
      <line x1="-83" y1="87" x2="-116" y2="135" />
      <line x1="-93" y1="69" x2="-130" y2="112" />
      <line x1="-99" y1="50" x2="-139" y2="86" />
      <line x1="-103" y1="29" x2="-145" y2="58" />
      <line x1="-105" y1="8" x2="-148" y2="28" />
      <line x1="-105" y1="-14" x2="-148" y2="-5" />
      <line x1="-103" y1="-35" x2="-145" y2="-37" />
      <line x1="-99" y1="-56" x2="-139" y2="-67" />
      
      <!-- Top left rays -->
      <line x1="-93" y1="-75" x2="-130" y2="-94" />
      <line x1="-83" y1="-93" x2="-116" y2="-118" />
      <line x1="-71" y1="-109" x2="-99" y2="-140" />
      <line x1="-56" y1="-122" x2="-78" y2="-157" />
      <line x1="-39" y1="-132" x2="-54" y2="-169" />
      <line x1="-20" y1="-138" x2="-28" y2="-177" />
    </g>
  </g>
</svg>