<svg width="1200" height="630" xmlns="http://www.w3.org/2000/svg">
  <!-- Warm cream background - ensuring correct color -->
  <rect width="1200" height="630" fill="#fff3ea"/>
  
  <!-- Context sunburst logo centered -->
  <g transform="translate(600,315)">
    <!-- Main circle -->
    <circle cx="0" cy="0" r="150" fill="#ed2024"/>
    
    <!-- Sunburst rays -->
    <g stroke="#ed2024" stroke-width="10" stroke-linecap="round">
      <!-- Top rays -->
      <line x1="0" y1="-175" x2="0" y2="-225" />
      <line x1="25" y1="-172" x2="35" y2="-221" />
      <line x1="49" y1="-165" x2="68" y2="-211" />
      <line x1="70" y1="-152" x2="98" y2="-196" />
      <line x1="89" y1="-136" x2="124" y2="-175" />
      <line x1="104" y1="-116" x2="145" y2="-148" />
      <line x1="116" y1="-94" x2="163" y2="-118" />
      <line x1="124" y1="-70" x2="174" y2="-84" />
      
      <!-- Right rays -->
      <line x1="129" y1="-44" x2="181" y2="-46" />
      <line x1="131" y1="-18" x2="185" y2="-6" />
      <line x1="131" y1="10" x2="185" y2="35" />
      <line x1="129" y1="36" x2="181" y2="73" />
      <line x1="124" y1="62" x2="174" y2="108" />
      <line x1="116" y1="87" x2="163" y2="140" />
      <line x1="104" y1="109" x2="145" y2="169" />
      <line x1="89" y1="129" x2="124" y2="194" />
      
      <!-- Bottom rays -->
      <line x1="70" y1="145" x2="98" y2="215" />
      <line x1="49" y1="158" x2="68" y2="230" />
      <line x1="25" y1="165" x2="35" y2="240" />
      <line x1="0" y1="168" x2="0" y2="244" />
      <line x1="-25" y1="165" x2="-35" y2="240" />
      <line x1="-49" y1="158" x2="-68" y2="230" />
      <line x1="-70" y1="145" x2="-98" y2="215" />
      <line x1="-89" y1="129" x2="-124" y2="194" />
      
      <!-- Left rays -->
      <line x1="-104" y1="109" x2="-145" y2="169" />
      <line x1="-116" y1="87" x2="-163" y2="140" />
      <line x1="-124" y1="62" x2="-174" y2="108" />
      <line x1="-129" y1="36" x2="-181" y2="73" />
      <line x1="-131" y1="10" x2="-185" y2="35" />
      <line x1="-131" y1="-18" x2="-185" y2="-6" />
      <line x1="-129" y1="-44" x2="-181" y2="-46" />
      <line x1="-124" y1="-70" x2="-174" y2="-84" />
      
      <!-- Top left rays -->
      <line x1="-116" y1="-94" x2="-163" y2="-118" />
      <line x1="-104" y1="-116" x2="-145" y2="-148" />
      <line x1="-89" y1="-136" x2="-124" y2="-175" />
      <line x1="-70" y1="-152" x2="-98" y2="-196" />
      <line x1="-49" y1="-165" x2="-68" y2="-211" />
      <line x1="-25" y1="-172" x2="-35" y2="-221" />
    </g>
  </g>
  
  <!-- Tagline text below logo -->
  <text x="600" y="480" font-family="system-ui, -apple-system, sans-serif" font-size="48" font-weight="600" text-anchor="middle" fill="#333333">
    Text it, tag it, find it later.
  </text>
</svg>